HIERARCHY
ROOT Hips
{
	OFFSET	0.00	0.00	0.00
	CHANNELS 6 Xposition Yposition Zposition Zrotation Xrotation Yrotation
	JOINT Spine
	{
		OFFSET	 0.00	0.01	 0.00
		CHANNELS 3 Zrotation Xrotation Yrotation
		JOINT Spine1
		{
			OFFSET	 0.00	 2.45913012437421	 0.00
			CHANNELS 3 Zrotation Xrotation Yrotation
            JOINT Neck
            {
                OFFSET	 0.00	 2.48462964506057	 0.00
                CHANNELS 3 Zrotation Xrotation Yrotation
                JOINT Head
                {
                    OFFSET	 0.00	 0.927524780924562	 0.00
                    CHANNELS 3 Zrotation Xrotation Yrotation
                    End Site 
                    {
                        OFFSET	 0.00	 1.14999962169752	 0.00
                    }
                }
            }
			JOINT LeftShoulder
			{
				OFFSET	 0.00	 2.48462964506057	 0.00
				CHANNELS 3 Zrotation Xrotation Yrotation
				JOINT LeftUpArm
				{
					OFFSET	 0.00	 1.24881979654096	 0.00
					CHANNELS 3 Zrotation Xrotation Yrotation
					JOINT LeftForeArm
					{
						OFFSET	 0.00	2.59758046908119	 0.00
						CHANNELS 3 Zrotation Xrotation Yrotation
						JOINT LeftHand
						{
							OFFSET	 0.00	2.45542024364365	 0.00
							CHANNELS 3 Zrotation Xrotation Yrotation
							JOINT LeftHandThumb 
							{
								OFFSET	 0.00	0.00	 0.00
								CHANNELS 3 Zrotation Xrotation Yrotation
								End Site
								{
									OFFSET	 0.00	0.00	1.00000003353624
								}
							}
							JOINT L_Wrist_End 
							{
								OFFSET	 0.00	0.99999967115358	 0.00
								CHANNELS 3 Zrotation Xrotation Yrotation
								End Site 
								{
									OFFSET	 0.00	 0.00	 0.00
								}
							}
						}
					}
				}
			}
			JOINT RightShoulder
			{
				OFFSET	 0.00	 2.48462964506057	 0.00
				CHANNELS 3 Zrotation Xrotation Yrotation
				JOINT RightUpArm
				{
					OFFSET	 0.00	 1.24881979654096	 0.00
					CHANNELS 3 Zrotation Xrotation Yrotation
					JOINT RightForeArm
					{
						OFFSET	 0.00	2.59758046908119	 0.00
						CHANNELS 3 Zrotation Xrotation Yrotation
						JOINT RightHand
						{
							OFFSET	 0.00	2.45542024364365	 0.00
							CHANNELS 3 Zrotation Xrotation Yrotation
							JOINT RightHandThumb 
							{
								OFFSET	 0.00	0.00	 0.00
								CHANNELS 3 Zrotation Xrotation Yrotation
								End Site
								{
									OFFSET	 0.00	0.00	1.00000003353624
								}
							}
							JOINT R_Wrist_End 
							{
								OFFSET	 0.00	0.99999967115358	 0.00
								CHANNELS 3 Zrotation Xrotation Yrotation
								End Site 
								{
									OFFSET	 0.00	 0.00	 0.00
								}
							}
						}
					}
				}
			}
		}
	}
	JOINT LeftUpLeg
	{
		OFFSET	 1.2719394002717	 0.00	 0.00
		CHANNELS 3 Zrotation Xrotation Yrotation
		JOINT LeftLowLeg
		{
			OFFSET	 0.00	-4.3429100912261	 0.00
			CHANNELS 3 Zrotation Xrotation Yrotation
			JOINT LeftFoot
			{
				OFFSET	 0.00	-4.48767017425826	 0.00
				CHANNELS 3 Zrotation Xrotation Yrotation
				JOINT LeftToeBase
                {
                    OFFSET	 0.00	0.00	 1.51507020887566
                    CHANNELS 3 Zrotation Xrotation Yrotation
                    End Site 
                    {
                        OFFSET	 0.00	0.00	 0.75000010571191
                    }
                }
			}
		}
	}
	JOINT RightUpLeg
	{
		OFFSET	 -1.2719393604653	 0.00	 0.00
		CHANNELS 3 Zrotation Xrotation Yrotation
		JOINT RightLowLeg
		{
			OFFSET	 0.00	-4.3429100912261	 0.00
			CHANNELS 3 Zrotation Xrotation Yrotation
			JOINT RightFoot
			{
				OFFSET	 0.00	-4.48767017425826	 0.00
				CHANNELS 3 Zrotation Xrotation Yrotation
				JOINT RightToeBase
                {
                    OFFSET	 0.00	0.00	 1.51507020887566
                    CHANNELS 3 Zrotation Xrotation Yrotation
                    End Site 
                    {
                        OFFSET	 0.00	0.00	 0.749999965609858
                    }
                }   
			}
		}
	}
}
MOTION 
Frames:	13 
Frame Time: 0.02 
 1.9895700073242188 -3.56635009765625 9.382760009765626 -148.543 80.8905 149.275 2.36281 -8.02681 -0.309694 4.21186 -11.6181 0.177327 -49.744 66.6911 45.2623 79.1902 -67.6167 790.418 -113.8591 -8.39255 -12.8917 15.2022 12.6721 -26.3958 0.0 5.81306 0.0 22.829 -9.41733 23.1096 0.0 0.0 0.0 0.0 0.0 0.0 110.8019 -6.28607 -352.464 -13.5323 -2.08335 55.6763 0.0 14.7835 0.0 -25.2612 -12.8796 -50.1616 0.0 0.0 0.0 0.0 0.0 0.0 7.15335 -5.50118 11.2451 0.0 7.57795 0.0 -18.1221 0.6736002 11.2876 0.0 -29.751999 0.0 6.0835 -4.88811 6.40099 0.0 8.85022 0.0 13.396 5.4046097 -16.8177 0.0 -33.7293 0.0 
  1.9907499694824218 -3.5637701416015624 9.383109741210937 -148.366 80.9149 149.122 2.35085 -7.92104 -0.325705 4.26447 -11.5792 0.159622 -49.8989 66.6188 45.3741 79.2001 -67.7549 790.403 -113.8354 -8.39431 -12.8471 15.1824 12.6701 -26.4416 0.0 5.893 0.0 22.7836 -9.43854 23.1788 0.0 0.0 0.0 0.0 0.0 0.0 110.7667 -6.25545 -352.53 -13.4672 -2.09127 55.5982 0.0 14.7907 0.0 -25.1949 -12.8668 -49.9163 0.0 0.0 0.0 0.0 0.0 0.0 7.15545 -5.50914 11.1675 0.0 7.61694 0.0 -18.1407 0.65499973 11.3417 0.0 -29.7322 0.0 6.09118 -4.88603 6.39164 0.0 8.87798 0.0 13.3994 5.4162397 -16.8528 0.0 -33.749397 0.0 
  1.9914199829101562 -3.5598800659179686 9.383729858398437 -148.136 80.9635 148.907 2.32756 -7.76884 -0.322751 4.31921 -11.5583 0.164949 -49.9776 66.6273 45.3736 79.1696 -67.8608 790.306 -113.7789 -8.3884 -12.7645 15.1228 12.712 -26.5066 0.0 5.90501 0.0 22.7924 -9.37083 23.1692 0.0 0.0 0.0 0.0 0.0 0.0 110.7223 -6.21394 -352.577 -13.3774 -2.12898 55.5124 0.0 14.7684 0.0 -25.2019 -12.7909 -49.8385 0.0 0.0 0.0 0.0 0.0 0.0 7.16133 -5.51517 11.1495 0.0 7.68702 0.0 -18.1518 0.65649986 11.3554 0.0 -29.668499 0.0 6.09802 -4.87965 6.37589 0.0 8.92692 0.0 13.3963 5.4311 -16.8778 0.0 -33.7215 0.0 
  1.9916900634765624 -3.55510009765625 9.38468017578125 -147.865 81.0232 148.645 2.29667 -7.61694 -0.314413 4.38 -11.514 0.176047 -50.0711 66.7389 45.3213 79.0391 -67.958 790.152 -113.7605 -8.38477 -12.7149 15.0918 12.8235 -26.6609 0.0 5.85316 0.0 22.7991 -9.29846 23.1833 0.0 0.0 0.0 0.0 0.0 0.0 110.684296 -6.17318 -352.606 -13.2809 -2.16271 55.4804 0.0 14.7469 0.0 -25.1327 -12.7562 -49.8324 0.0 0.0 0.0 0.0 0.0 0.0 7.16663 -5.51765 11.1117 0.0 7.76349 0.0 -17.7713 0.82540035 11.5382 0.0 -29.9729 0.0 6.11087 -4.8664 6.39035 0.0 8.97677 0.0 13.4153 5.4499598 -16.9335 0.0 -33.727303 0.0 
  1.9913800048828125 -3.549429931640625 9.385469970703125 -147.585 81.082 148.403 2.26536 -7.45485 -0.297468 4.42426 -11.4832 0.197212 -50.2068 66.935 45.2848 78.8325 -68.0199 789.905 -113.7149 -8.33582 -12.7059 15.0053 12.9033 -26.5405 0.0 5.90392 0.0 22.7589 -9.37215 23.0484 0.0 0.0 0.0 0.0 0.0 0.0 110.6129 -6.20134 -352.644 -13.1058 -2.129 55.5639 0.0 14.7185 0.0 -25.2327 -12.7914 -49.8172 0.0 0.0 0.0 0.0 0.0 0.0 7.17446 -5.53708 11.0528 0.0 7.84624 0.0 -17.769 0.83860016 11.5854 0.0 -29.9516 0.0 6.11977 -4.86972 6.3257 0.0 9.04669 0.0 13.4076 5.4719 -16.9303 0.0 -33.715 0.0 
  1.990240020751953 -3.5425601196289063 9.386339721679688 -147.277 81.1515 148.111 2.25133 -7.2857 -0.274801 4.41224 -11.418 0.22046 -50.2794 67.2605 45.1197 78.6572 -68.0438 789.717 -113.6744 -8.31706 -12.6962 14.9487 13.0373 -26.6645 0.0 5.93563 0.0 22.7626 -9.36359 23.183 0.0 0.0 0.0 0.0 0.0 0.0 110.5924 -6.21347 -352.631 -12.9226 -2.08102 55.7444 0.0 14.7001 0.0 -25.1893 -12.8333 -49.7717 0.0 0.0 0.0 0.0 0.0 0.0 7.18879 -5.54225 11.041 0.0 7.9201 0.0 -17.7636 0.8724003 11.6099 0.0 -29.9656 0.0 6.13353 -4.87898 6.26009 0.0 9.13078 0.0 13.3868 5.5061502 -16.9088 0.0 -33.7352 0.0 
  1.988520050048828 -3.534330139160156 9.387000122070312 -147.137 81.1823 147.999 2.23521 -7.15418 -0.260704 4.395 -11.3595 0.235579 -50.5799 67.5877 45.1947 78.3242 -68.0864 789.185 -113.6098 -8.27549 -12.7032 14.8342 13.1238 -26.7549 0.0 6.0101 0.0 22.7377 -9.36583 23.1857 0.0 0.0 0.0 0.0 0.0 0.0 110.5897 -6.22702 -352.625 -12.7506 -2.01743 55.8832 0.0 14.6326 0.0 -25.0996 -12.7758 -49.5606 0.0 0.0 0.0 0.0 0.0 0.0 7.19949 -5.60307 10.9985 0.0 7.98637 0.0 -17.7605 0.89430046 11.6567 0.0 -29.9357 0.0 6.147 -4.95454 6.15952 0.0 9.24288 0.0 13.3814 5.5245304 -16.8591 0.0 -33.7431 0.0 
  1.9863600158691406 -3.5249099731445312 9.387490234375 -146.989 81.2191 147.863 2.19867 -7.01967 -0.244401 4.41943 -11.2763 0.254471 -50.9263 68.0796 45.1909 77.9986 -68.1406 788.812 -113.552 -8.24099 -12.6108 14.6923 13.1717 -26.954 0.0 6.09144 0.0 22.7036 -9.31997 23.1616 0.0 0.0 0.0 0.0 0.0 0.0 110.533005 -6.20221 -352.651 -12.5057 -1.95211 56.1898 0.0 14.5593 0.0 -25.1127 -12.6278 -49.3828 0.0 0.0 0.0 0.0 0.0 0.0 7.21548 -5.65142 11.0157 0.0 8.03079 0.0 -17.7393 0.9379997 11.6844 0.0 -30.1392 0.0 6.16095 -5.04214 6.04493 0.0 9.36931 0.0 13.3776 5.54356 -16.7907 0.0 -33.755898 0.0 
  1.9839199829101561 -3.515039978027344 9.387890014648438 -146.885 81.2422 147.774 2.14043 -6.90386 -0.250127 4.49018 -11.1646 0.251508 -51.4907 68.6221 45.3689 77.6022 -68.2186 788.404 -113.5242 -8.2727 -12.6027 14.5216 13.2535 -26.9205 0.0 6.17423 0.0 22.5977 -9.33616 23.0282 0.0 0.0 0.0 0.0 0.0 0.0 110.4469 -6.19417 -352.708 -12.1994 -1.83784 56.3802 0.0 14.5594 0.0 -25.2043 -12.5978 -49.2229 0.0 0.0 0.0 0.0 0.0 0.0 7.22872 -5.70559 11.0166 0.0 8.05513 0.0 -17.7355 0.99050045 11.6882 0.0 -29.9748 0.0 6.17384 -5.14398 5.89862 0.0 9.49118 0.0 13.3582 5.57854 -16.6862 0.0 -33.768997 0.0 
  1.9801800537109375 -3.503599853515625 9.388350219726563 -146.784 81.2586 147.678 2.09757 -6.80902 -0.252077 4.52745 -10.993 0.247125 -52.3875 69.1625 45.8955 77.3299 -68.3298 787.905 -113.4952 -8.27845 -12.6481 14.3386 13.3337 -26.9409 0.0 6.23027 0.0 22.5016 -9.29966 23.1375 0.0 0.0 0.0 0.0 0.0 0.0 110.406296 -6.15029 -352.805 -11.8892 -1.76418 56.4361 0.0 14.5503 0.0 -25.217 -12.5115 -48.7466 0.0 0.0 0.0 0.0 0.0 0.0 7.26028 -5.76743 11.1025 0.0 8.06121 0.0 -17.7275 1.0605001 11.6598 0.0 -30.209099 0.0 6.20317 -5.27098 5.88005 0.0 9.62966 0.0 13.377 5.5900803 -16.6591 0.0 -33.813 0.0 
  1.9764900207519531 -3.4915200805664064 9.3885400390625 -146.611 81.2951 147.522 2.0835 -6.7249 -0.278724 4.505 -10.7155 0.207405 -53.3865 69.7662 46.4873 77.1617 -68.4357 787.63 -113.4654 -8.33447 -12.6767 14.1408 13.4186 -27.1327 0.0 6.28212 0.0 22.4682 -9.26015 23.1051 0.0 0.0 0.0 0.0 0.0 0.0 110.3824 -6.13502 -352.978 -11.484 -1.56248 56.9246 0.0 14.5538 0.0 -25.2033 -12.2824 -48.7127 0.0 0.0 0.0 0.0 0.0 0.0 7.28285 -5.81069 11.1078 0.0 8.07125 0.0 -17.7368 1.1201 11.6466 0.0 -30.0206 0.0 6.22212 -5.34989 5.79147 0.0 9.71343 0.0 13.3612 5.63632 -16.5909 0.0 -33.896 0.0 
  1.9716299438476563 -3.4767401123046877 9.388359985351563 -146.565 81.3197 147.463 2.01665 -6.63111 -0.291894 4.56966 -10.4115 0.187672 -54.5998 70.3502 47.296 76.7775 -68.5697 787.031 -113.4311 -8.35271 -12.6526 13.8347 13.3895 -27.232 0.0 6.40565 0.0 22.5428 -9.1696 22.963 0.0 0.0 0.0 0.0 0.0 0.0 110.2956 -6.11966 -353.117 -11.0056 -1.40754 56.77 0.0 14.5847 0.0 -25.0529 -12.2111 -47.8293 0.0 0.0 0.0 0.0 0.0 0.0 7.30623 -5.87182 11.131 0.0 8.05003 0.0 -17.74 1.1738005 11.6863 0.0 -30.1891 0.0 6.25005 -5.48491 5.84782 0.0 9.84067 0.0 13.387 5.6224003 -16.5982 0.0 -33.879898 0.0 
  1.9666099548339844 -3.4610000610351563 9.388250122070312 -146.226 81.385 147.119 1.997 -6.5057 -0.296371 4.54833 -9.99772 0.164533 -55.9202 70.9505 48.2316 76.6151 -68.6666 786.713 -113.3515 -8.38567 -12.569 13.4644 13.3685 -27.4815 0.0 6.56811 0.0 22.6333 -9.07718 22.5457 0.0 0.0 0.0 0.0 0.0 0.0 110.2396 -6.10955 -353.45 -10.4062 -1.25656 57.2193 0.0 14.6136 0.0 -24.8279 -11.9198 -47.2741 0.0 0.0 0.0 0.0 0.0 0.0 7.3452 -5.88712 11.1299 0.0 8.04291 0.0 -18.122 1.0721998 11.5795 0.0 -29.9095 0.0 6.27568 -5.56895 5.64669 0.0 9.95546 0.0 13.3535 5.69462 -16.4144 0.0 -33.954002 0.0 
